PathFileType	4	(X/Y/Z)	C:/Users/opensim2020/Desktop/walking_exp_matlab/subject02_walking11_straight_03.trc	
DataRate	CameraRate	NumFrames	NumMarkers	Units	OrigDataRate	OrigDataStartFrame	OrigNumFrames	
100.00	100.00	6	42	mm	100.00	2505	250	
Frame#	Time	LFHD			RFHD			LBHD			RBHD			C7			T10			CLAV			STRN			RBAK			LSHO			LUPA			LELB			LFRM			LWRA			LWRB			LFIN			RSHO			RUPA			RELB			RFRM			RWRA			RWRB			RFIN			LASI			RASI			LPSI			RPSI			LTHI			LKNE			LTIB			LANK			LHEE			LTOE			RTHI			RKNE			RTIB			RANK			RHEE			RTOE			*39			*40			*41			
		X1	Y1	Z1	X2	Y2	Z2	X3	Y3	Z3	X4	Y4	Z4	X5	Y5	Z5	X6	Y6	Z6	X7	Y7	Z7	X8	Y8	Z8	X9	Y9	Z9	X10	Y10	Z10	X11	Y11	Z11	X12	Y12	Z12	X13	Y13	Z13	X14	Y14	Z14	X15	Y15	Z15	X16	Y16	Z16	X17	Y17	Z17	X18	Y18	Z18	X19	Y19	Z19	X20	Y20	Z20	X21	Y21	Z21	X22	Y22	Z22	X23	Y23	Z23	X24	Y24	Z24	X25	Y25	Z25	X26	Y26	Z26	X27	Y27	Z27	X28	Y28	Z28	X29	Y29	Z29	X30	Y30	Z30	X31	Y31	Z31	X32	Y32	Z32	X33	Y33	Z33	X34	Y34	Z34	X35	Y35	Z35	X36	Y36	Z36	X37	Y37	Z37	X38	Y38	Z38	X39	Y39	Z39	X40	Y40	Z40	X41	Y41	Z41	X42	Y42	Z42	

126	1.250	1374.28064	55.05826	1737.88989	1518.21460	56.67466	1724.96191	1367.39111	-49.85587	1628.73193	1509.63391	-59.32443	1611.16638	1439.36316	-81.82083	1511.64600	1435.07739	-152.17419	1242.38733	1432.19678	53.05614	1438.18616	1434.61536	92.74361	1260.96094	1493.70532	-153.47638	1342.85022	1263.38623	1.81366	1493.08032	1157.46252	14.30164	1305.99890	1123.70972	43.69782	1169.97607	1110.09875	114.72683	1056.94690	1144.09241	222.71028	977.34515	1110.37610	182.70128	955.58118	1103.00879	233.77000	914.46130	1628.12207	-11.60846	1465.28748	1702.10645	-57.32148	1272.79309	1721.30481	-49.55375	1127.23425	1746.60413	-20.97126	1011.90210	1736.30957	34.55672	886.78723	1761.45020	-16.06588	882.35248	1770.67993	22.64667	821.29083	1294.71887	68.29138	973.26654	1551.70483	76.47321	964.05145	1383.54895	-138.47650	1019.02393	1497.56030	-140.87802	1015.25885	1253.11377	-39.70858	667.11395	1285.85608	-102.82716	471.91177	1290.85217	-193.21080	297.85385	1328.53735	-226.12701	75.87999	1382.11304	-261.92886	50.17731	1302.03906	-74.60661	31.53507	1637.39453	54.53294	666.16858	1607.95300	135.00676	473.56387	1625.79663	160.93462	290.06668	1605.86426	218.93466	102.16302	1550.27722	213.74440	38.12138	1632.27588	378.75592	96.65539	1460.42957	-63.13689	1774.33008	-3357.06445	2846.06641	1034.01440			 
127	1.260	1376.04468	63.07172	1736.88330	1519.95996	64.80283	1724.08545	1369.29675	-41.63142	1627.40625	1511.95801	-50.89672	1610.19067	1441.30286	-73.25750	1510.47534	1437.07727	-143.51944	1241.22620	1434.13330	61.60563	1437.08032	1436.22327	101.36069	1259.86792	1495.71655	-144.89868	1341.88354	1265.37598	10.81582	1492.17090	1159.40369	23.64557	1305.08313	1125.64612	52.69182	1169.11743	1112.39160	124.24690	1056.15588	1146.45422	232.46780	977.28668	1113.04065	192.77515	955.23096	1105.48779	243.91290	914.42578	1630.05005	-3.37680	1463.83813	1703.66895	-49.45158	1271.37012	1723.14771	-42.22879	1126.01196	1748.52637	-14.70142	1010.50342	1738.48242	39.40052	884.77350	1763.57056	-11.14881	880.87396	1772.91589	26.89752	819.39862	1295.00049	75.59958	971.81061	1552.52039	86.01263	963.08826	1385.89575	-129.98018	1017.65918	1499.89246	-131.84750	1014.24609	1254.19519	-33.87411	666.69830	1286.67163	-97.68352	471.65408	1291.52258	-190.13441	298.70090	1328.57690	-225.63193	77.02239	1382.04248	-261.44443	51.51725	1301.91418	-74.52812	31.48743	1638.51025	64.27422	665.39209	1608.33459	144.31265	472.47836	1626.32764	172.14339	289.34735	1606.17700	232.00304	101.83489	1550.97888	227.01086	38.08356	1632.11133	392.35147	97.80416	1462.03442	-55.31681	1773.29663	-3356.84985	2845.93579	1034.14661			 
128	1.270	1377.92883	71.12669	1735.82471	1521.88379	72.89635	1723.17761	1371.39795	-33.40990	1626.21582	1513.69019	-42.75259	1608.99365	1443.33057	-64.83714	1509.40527	1439.16125	-134.86739	1240.08142	1436.21936	70.20922	1435.99219	1437.86450	110.05971	1258.77441	1497.32507	-136.28278	1340.38623	1267.46582	19.71246	1491.26855	1161.68738	32.98428	1304.25415	1127.76917	61.56790	1168.11279	1114.75574	133.19037	1055.27087	1149.06091	241.80933	976.92633	1115.67200	202.26656	954.60242	1108.25000	253.46425	914.04572	1632.22046	5.13141	1462.55579	1705.49622	-41.58815	1270.01819	1724.86890	-34.96091	1124.74341	1750.24146	-8.69053	1008.87640	1740.80872	44.55308	882.84540	1765.54138	-6.24544	879.38837	1775.19641	31.25321	817.57501	1296.01001	83.94947	970.82928	1553.38855	95.68668	962.09790	1388.29431	-121.36265	1016.27319	1502.37646	-122.63098	1013.17084	1255.24109	-27.31079	665.88733	1287.45996	-92.55194	471.60876	1292.13843	-186.96056	299.68423	1328.62524	-225.13086	78.34037	1382.20337	-261.39398	53.48420	1301.79614	-74.47139	31.44222	1639.71863	74.97170	664.77856	1608.88953	154.14198	471.57776	1626.68152	182.86465	288.50970	1606.46277	243.33173	101.24722	1551.15576	238.97293	37.02100	1632.05762	403.71088	97.81939	1464.09436	-47.16333	1772.16260	-3355.30493	2846.54175	1033.97070			 
129	1.280	1380.01855	79.21250	1734.80273	1523.95715	81.01218	1722.24512	1373.52893	-25.07757	1624.91760	1515.88867	-34.45072	1607.84924	1445.46667	-56.13489	1508.28052	1441.37024	-125.95389	1238.83826	1438.31580	78.87014	1434.96338	1439.60864	118.85421	1257.77002	1499.37463	-127.55154	1339.09143	1269.61816	28.61536	1490.37695	1163.97156	41.83627	1303.31531	1130.09033	70.22040	1167.12622	1117.32007	142.15945	1054.22522	1151.85962	250.72177	976.29303	1118.54834	211.28032	953.75647	1110.90332	262.34515	913.36877	1634.31592	13.60129	1461.14551	1707.31653	-33.51433	1268.72461	1726.36194	-27.63839	1123.26831	1752.23413	-2.28163	1007.51605	1743.24084	49.99627	881.05017	1767.66724	-1.05205	878.03284	1777.48083	35.71368	815.81982	1296.75989	92.10348	969.61243	1554.48743	105.59571	961.21173	1390.96313	-112.56850	1014.87628	1505.00317	-113.26656	1012.09833	1256.34277	-20.76391	665.32336	1288.26001	-87.16037	471.53006	1292.84070	-183.62234	300.83237	1328.56885	-224.52701	79.67461	1382.06323	-260.72427	55.01831	1301.67578	-74.36424	31.35629	1640.98096	86.07777	663.91077	1609.79639	164.42218	470.67487	1627.44849	192.67935	287.54932	1606.83301	252.97415	100.47697	1551.26672	247.69983	36.20283	1631.89319	412.87036	96.25084	1465.88477	-39.20200	1770.67090	-3356.93652	2846.13086	1034.12683			 
130	1.290	1382.21008	87.32923	1733.76404	1526.20288	89.20244	1721.32300	1375.91187	-16.75759	1623.81470	1518.20166	-26.06483	1606.73730	1447.71362	-47.55930	1507.14539	1443.73767	-116.97751	1237.56042	1440.56384	87.58378	1433.96851	1441.48608	127.75174	1256.80603	1501.52332	-118.73937	1337.82263	1271.84216	37.43092	1489.50696	1165.96802	50.04127	1302.43262	1132.54675	78.76426	1166.16321	1120.15479	150.72713	1053.51343	1154.84998	259.22913	975.37726	1121.57556	219.89737	952.74402	1114.19092	271.18027	912.54510	1636.47986	22.08409	1459.87354	1709.29578	-25.42711	1267.49231	1728.44678	-19.97407	1122.39026	1754.48108	4.44279	1006.41388	1745.82031	55.63591	879.32159	1769.88049	4.31253	876.76477	1779.88782	40.48013	814.17859	1297.98450	100.49557	968.53864	1555.69189	115.63149	960.30811	1393.77698	-103.65564	1013.53479	1507.75842	-103.74044	1011.08252	1257.55090	-14.03134	664.86157	1289.06421	-81.52459	471.54419	1293.52661	-180.14304	302.10480	1328.47009	-223.82916	81.23912	1381.92627	-260.29166	57.04475	1301.53479	-74.25803	31.29644	1642.21057	97.21854	662.98346	1610.84570	175.07460	469.85803	1627.98840	202.00154	286.26807	1606.68665	260.66394	98.87924	1551.18530	255.08516	34.64780	1631.84021	420.47375	93.81052	1468.37048	-31.00979	1769.68787	-3356.89063	2846.00610	1034.25952			 
131	1.300	1384.60815	95.57960	1732.80811	1528.60657	97.42595	1720.40723	1378.25476	-8.40195	1622.72412	1521.16309	-17.59499	1605.60583	1450.03601	-39.02355	1506.04993	1446.26758	-107.89318	1236.25623	1442.78967	96.29079	1433.03625	1443.42224	136.73962	1255.88794	1503.80615	-109.93249	1336.56372	1274.14258	46.16266	1488.60376	1168.66064	58.96472	1301.62842	1135.21899	87.10503	1165.11658	1123.08496	159.06029	1052.27209	1158.20288	267.41730	974.40808	1124.81873	228.00735	951.51617	1117.32251	278.95856	911.16864	1638.53210	30.54900	1458.51587	1711.31592	-17.28233	1266.31836	1730.38037	-12.23423	1121.29688	1756.53772	10.93872	1005.08643	1748.35547	61.35727	877.70013	1772.22180	9.96025	875.60083	1782.43091	45.48642	812.68323	1299.56970	108.96432	967.40912	1557.13245	125.90617	959.42627	1396.73425	-94.40587	1012.13214	1510.56824	-94.00670	1009.99304	1258.89478	-7.18463	664.35272	1289.93054	-75.51327	471.53027	1294.17444	-176.42433	303.51031	1328.29163	-223.11769	82.96205	1381.67029	-259.80255	59.23845	1301.31689	-74.15682	31.28075	1645.27832	110.82483	663.49292	1612.15393	185.73935	469.01822	1628.82141	210.61255	284.93130	1606.32690	266.66159	96.60850	1550.68591	260.46088	32.64210	1631.28442	426.20404	89.99307	1470.77991	-22.93302	1768.73926	-3360.34668	2845.27051	1034.18054			 
